<svg width="24" height="24" viewBox="0 0 24 24" fill="none" xmlns="http://www.w3.org/2000/svg">
<path d="M19.7401 4.25998C19.4347 3.95464 18.9396 3.95464 18.6343 4.25998L12 10.8943L5.36576 4.25998C5.06042 3.95464 4.56536 3.95464 4.26001 4.25998C3.95467 4.56533 3.95467 5.06039 4.26001 5.36573L10.8943 12L4.26001 18.6343C3.95467 18.9396 3.95467 19.4347 4.26001 19.74C4.56536 20.0454 5.06042 20.0454 5.36576 19.74L12 13.1058L18.6343 19.74C18.9396 20.0454 19.4347 20.0454 19.7401 19.74C20.0454 19.4347 20.0454 18.9396 19.7401 18.6343L13.1058 12L19.7401 5.36573C20.0454 5.06039 20.0454 4.56533 19.7401 4.25998Z" fill="white" fill-opacity="0.4"/>
</svg>
